<svg width="64" height="65" viewBox="0 0 64 65" fill="none" xmlns="http://www.w3.org/2000/svg">
<rect y="0.5" width="64" height="64" rx="32" fill="white"/>
<path d="M49.2625 43.9994C49.2099 44.9957 48.7652 45.9308 48.0256 46.6004C47.2859 47.27 46.3114 47.6198 45.3148 47.5734H14.9477C13.9202 47.5814 12.9265 47.2067 12.1602 46.5222C11.7995 46.2076 11.5095 45.8201 11.3096 45.3852C11.1096 44.9504 11.0041 44.478 11 43.9994C11.0134 43.7699 11.1164 43.5548 11.2868 43.4005C11.4571 43.2461 11.6813 43.1648 11.911 43.1741H24.0345C24.1723 43.178 24.3066 43.2183 24.4238 43.2908C24.9179 43.6342 25.4914 43.8459 26.0901 43.906H34.1802C34.7867 43.9311 35.3825 43.7407 35.8621 43.3687C35.9942 43.2556 36.1631 43.1947 36.337 43.1974L46.9655 43.1741H48.3515C48.5812 43.1648 48.8054 43.2461 48.9758 43.4005C49.1461 43.5548 49.2491 43.7699 49.2625 43.9994Z" fill="#151419"/>
<path d="M30.1878 31.1685C30.7575 31.1684 31.3145 30.9994 31.7882 30.6828C32.2619 30.3662 32.631 29.9162 32.849 29.3898C33.067 28.8634 33.1239 28.2842 33.0127 27.7254C32.9015 27.1666 32.6271 26.6533 32.2241 26.2505C31.8212 25.8476 31.3079 25.5733 30.749 25.4623C30.1902 25.3512 29.611 25.4083 29.0846 25.6264C28.5583 25.8445 28.1084 26.2138 27.7919 26.6876C27.4754 27.1614 27.3066 27.7184 27.3066 28.2881C27.3075 29.0519 27.6114 29.7841 28.1515 30.3241C28.6917 30.8641 29.424 31.1678 30.1878 31.1685Z" fill="#151419"/>
<path d="M33.5617 35.2502H26.814C26.1068 35.251 25.4288 35.5323 24.9287 36.0324C24.4286 36.5325 24.1473 37.2105 24.1465 37.9177V38.7808H36.2292V37.9177C36.2284 37.2105 35.9471 36.5325 35.447 36.0324C34.9469 35.5324 34.2689 35.2511 33.5617 35.2502Z" fill="#151419"/>
<path d="M44.5202 27.4766C43.6572 27.4779 42.7963 27.3918 41.9507 27.2197C40.5121 28.151 38.8742 28.7299 37.1698 28.9093C37.092 28.9171 37.0141 28.9249 36.944 28.9249C36.6149 28.9247 36.2926 28.8302 36.0155 28.6525C35.7384 28.4749 35.518 28.2216 35.3804 27.9225C35.2427 27.6235 35.1936 27.2913 35.2389 26.9653C35.2842 26.6393 35.422 26.333 35.6359 26.0828C36.0406 25.5909 36.3401 25.0211 36.5158 24.4088C36.0112 23.8989 35.586 23.3162 35.2544 22.6802H14.27C13.9949 22.6994 13.7385 22.8262 13.5563 23.0332C13.3741 23.2402 13.2808 23.5106 13.2966 23.7858V41.6246H24.0341C24.4665 41.6239 24.8902 41.7453 25.2566 41.9749C25.5062 42.1545 25.7896 42.2816 26.0897 42.3487H34.1798C34.404 42.3611 34.6273 42.3127 34.8261 42.2085C35.24 41.8405 35.7751 41.6381 36.3289 41.6401L46.9652 41.6246V27.243C46.1598 27.4008 45.3409 27.4791 44.5202 27.4766ZM30.1854 23.8481C31.0632 23.8481 31.9213 24.1084 32.6512 24.5961C33.381 25.0838 33.9499 25.777 34.2858 26.588C34.6218 27.3989 34.7096 28.2913 34.5384 29.1523C34.3671 30.0132 33.9444 30.804 33.3237 31.4247C32.703 32.0454 31.9122 32.4681 31.0513 32.6394C30.1903 32.8106 29.2979 32.7227 28.487 32.3868C27.676 32.0509 26.9828 31.482 26.4951 30.7522C26.0074 30.0223 25.7471 29.1642 25.7471 28.2864C25.7479 27.1095 26.2158 25.9811 27.048 25.149C27.8801 24.3168 29.0086 23.8489 30.1854 23.8481ZM37.785 39.5612C37.7844 39.7675 37.7021 39.9652 37.5562 40.1111C37.4104 40.257 37.2126 40.3392 37.0063 40.3398H23.3723C23.2699 40.3402 23.1685 40.3203 23.0739 40.2813C22.9793 40.2423 22.8933 40.1849 22.8209 40.1125C22.7485 40.0402 22.6912 39.9542 22.6522 39.8596C22.6132 39.7649 22.5933 39.6635 22.5936 39.5612V37.9182C22.5942 36.7984 23.0388 35.7245 23.8299 34.932C24.621 34.1394 25.6941 33.6928 26.8139 33.6902H33.5647C34.6845 33.6928 35.7576 34.1394 36.5487 34.9319C37.3398 35.7245 37.7844 36.7984 37.785 37.9182V39.5612Z" fill="#151419"/>
<path d="M44.5205 13.4999C39.8019 13.4999 36.0488 16.3186 36.0488 19.7134C36.0594 20.7891 36.4233 21.8315 37.0844 22.6801C37.356 23.0522 37.6695 23.3919 38.0188 23.6923C38.3536 23.9804 37.902 25.8414 36.8119 27.1028C36.7919 27.129 36.7802 27.1605 36.7782 27.1934C36.7762 27.2263 36.7841 27.2591 36.8008 27.2875C36.8175 27.3159 36.8423 27.3387 36.872 27.3529C36.9017 27.3672 36.935 27.3723 36.9676 27.3675C38.666 27.1567 40.2879 26.5368 41.694 25.5611C42.6169 25.8013 43.5668 25.9216 44.5205 25.9192C45.3426 25.9197 46.1624 25.8309 46.9654 25.6545C50.4537 24.8914 52.9999 22.5166 52.9999 19.7134C52.9999 16.2796 49.2001 13.5077 44.5205 13.4999ZM40.0962 17.397H44.0054C44.2119 17.397 44.41 17.479 44.556 17.625C44.702 17.7711 44.784 17.9691 44.784 18.1756C44.784 18.3821 44.702 18.5802 44.556 18.7262C44.41 18.8722 44.2119 18.9543 44.0054 18.9543H40.0962C39.8897 18.9543 39.6917 18.8722 39.5456 18.7262C39.3996 18.5802 39.3176 18.3821 39.3176 18.1756C39.3176 17.9691 39.3996 17.7711 39.5456 17.625C39.6917 17.479 39.8897 17.397 40.0962 17.397ZM48.6966 21.8825H40.0962C39.8897 21.8825 39.6917 21.8005 39.5456 21.6545C39.3996 21.5085 39.3176 21.3104 39.3176 21.1039C39.3176 20.8974 39.3996 20.6993 39.5456 20.5533C39.6917 20.4073 39.8897 20.3253 40.0962 20.3253H48.6966C48.9031 20.3253 49.1012 20.4073 49.2472 20.5533C49.3932 20.6993 49.4752 20.8974 49.4752 21.1039C49.4752 21.3104 49.3932 21.5085 49.2472 21.6545C49.1012 21.8005 48.9032 21.8825 48.6966 21.8825Z" fill="#151419"/>
</svg>
